<?xml version="1.0" encoding="UTF-8"?>
<svg width="24px" height="24px" viewBox="0 0 24 24" version="1.1" xmlns="http://www.w3.org/2000/svg" xmlns:xlink="http://www.w3.org/1999/xlink">
    <!-- Generator: Sketch 48.2 (47327) - http://www.bohemiancoding.com/sketch -->
    <title>element/fill/gear</title>
    <desc>Created with Sketch.</desc>
    <defs></defs>
    <g id="Final/iPhone-8/settings" stroke="none" stroke-width="1" fill="none" fill-rule="evenodd" transform="translate(-327.000000, -90.000000)">
        <g id="Group-4" transform="translate(24.000000, 90.000000)" fill="#F4F4F4">
            <path d="M327,13.3314245 L327,10.5826772 L323.674286,9.48317824 L322.902857,7.61059413 L324.411429,4.44953472 L322.474286,2.50823193 L319.371429,4.07158196 L317.502857,3.29849678 L316.32,0 L313.577143,0 L312.497143,3.33285612 L310.594286,4.1059413 L307.44,2.59413028 L305.502857,4.53543307 L307.062857,7.64495347 L306.291429,9.51753758 L303,10.6857552 L303,13.4173228 L306.325714,14.5168218 L307.097143,16.3894059 L305.588571,19.5504653 L307.525714,21.4917681 L310.628571,19.928418 L312.497143,20.7015032 L313.68,24 L316.405714,24 L317.485714,20.6671439 L319.388571,19.8940587 L322.542857,21.4058697 L324.48,19.4645669 L322.902857,16.3550465 L323.708571,14.4824624 L327,13.2970651 L327,13.3314245 Z M315,17.1624911 C312.154286,17.1624911 309.857143,14.8604152 309.857143,12.0085898 C309.857143,9.1567645 312.154286,6.85468862 315,6.85468862 C317.845714,6.85468862 320.142857,9.1567645 320.142857,12.0085898 C320.142857,14.8604152 317.845714,17.1624911 315,17.1624911 L315,17.1624911 Z" id="element/fill/gear"></path>
        </g>
    </g>
</svg>