<svg height="24" viewBox="0 0 24 24" width="24" xmlns="http://www.w3.org/2000/svg"><path d="m12 24c-6.64 0-12-5.36-12-12s5.36-12 12-12 12 5.36 12 12-5.36 12-12 12zm-1-10v-.2768943c0-.5986934.1032537-1.0851244.3097643-1.4593078.2065106-.3741833.5678987-.7658227 1.0841751-1.1749298.5836168-.4839438.9685737-.8705941 1.1548821-1.15996258.1863085-.28936846.2794613-.68350234.2794613-1.18241347 0-.45899824-.1672261-.83192872-.5016835-1.11880262-.3344573-.2868739-.7979768-.4303087-1.3905724-.4303087-.7811487 0-1.6139125.22450664-2.49831646.67352666l-.43771044-1.14499532c.9382763-.4839438 1.8944957-.72591207 2.8686869-.72591207.9607231 0 1.7227805.24321553 2.2861953.72965388.5634147.48643836.8451178 1.13875488.8451178 1.95696913 0 .66355181-.1200886 1.20236775-.3602694 1.61646399-.2401807.4140962-.6812538.8905492-1.3232323 1.4293732-.5297445.4340527-.8686861.7857798-1.016835 1.0551918s-.2222222.6286226-.2222222 1.0776427v.1347053zm.542851 1.1453114c.66667 0 1 .3321353 1 .9964158 0 .6690595-.33333 1.0035842-1 1.0035842s-1-.3345247-1-1.0035842c0-.6642805.33333-.9964158 1-.9964158z" fill="#fff" fill-rule="evenodd" transform=""/></svg>