<?xml version="1.0" encoding="UTF-8"?>
<svg width="24px" height="24px" viewBox="0 0 24 24" version="1.1" xmlns="http://www.w3.org/2000/svg" xmlns:xlink="http://www.w3.org/1999/xlink">
    <!-- Generator: Sketch 48.2 (47327) - http://www.bohemiancoding.com/sketch -->
    <title>element/outline/gear</title>
    <desc>Created with Sketch.</desc>
    <defs></defs>
    <g id="Final/iPhone-8/default" stroke="none" stroke-width="1" fill="none" fill-rule="evenodd" transform="translate(-327.000000, -90.000000)">
        <g id="Group-4" transform="translate(24.000000, 90.000000)" fill="#F4F4F4" fill-rule="nonzero">
            <path d="M326,11.3053049 L322.92453,10.2885379 L321.809044,7.58078162 L323.204822,4.65606976 L322.277754,3.72701059 L319.412352,5.17072062 L316.711121,4.05313867 L315.61625,1 L314.304289,1 L313.304911,4.08405885 L310.560921,5.19887607 L307.647101,3.80231733 L306.719976,4.73143325 L308.161188,7.60417499 L307.046178,10.3107752 L304,11.3919469 L304,12.6946951 L307.07547,13.7114621 L308.190956,16.4192184 L306.795178,19.3439302 L307.722246,20.2729894 L310.587648,18.8292794 L313.288879,19.9468613 L314.38375,23 L315.678568,23 L316.677946,19.9159412 L319.421936,18.8011239 L322.335756,20.1976827 L323.260518,19.2709344 L321.799242,16.3898577 L322.961489,13.6886457 L326,12.5943357 L326,11.3053049 Z M326,13.2970651 L326.904596,13.3314245 L323.708571,14.4824624 L322.902857,16.3550465 L324.48,19.4645669 L322.542857,21.4058697 L319.388571,19.8940587 L317.485714,20.6671439 L316.405714,24 L313.68,24 L312.497143,20.7015032 L310.628571,19.928418 L307.525714,21.4917681 L305.588571,19.5504653 L307.097143,16.3894059 L306.325714,14.5168218 L303,13.4173228 L303,10.6857552 L306.291429,9.51753758 L307.062857,7.64495347 L305.502857,4.53543307 L307.44,2.59413028 L310.594286,4.1059413 L312.497143,3.33285612 L313.577143,0 L316.32,0 L317.502857,3.29849678 L319.371429,4.07158196 L322.474286,2.50823193 L324.411429,4.44953472 L322.902857,7.61059413 L323.674286,9.48317824 L327,10.5826772 L327,13.2970651 L326,13.2970651 Z M315,16 C317.214731,16 319,14.2147314 319,12 C319,9.78526856 317.214731,8 315,8 C312.785269,8 311,9.78526856 311,12 C311,14.2147314 312.785269,16 315,16 Z M315,17 C312.233333,17 310,14.7666667 310,12 C310,9.23333333 312.233333,7 315,7 C317.766667,7 320,9.23333333 320,12 C320,14.7666667 317.766667,17 315,17 Z" id="element/outline/gear"></path>
        </g>
    </g>
</svg>