<svg height="24" viewBox="0 0 24 24" width="24" xmlns="http://www.w3.org/2000/svg"><g fill="none" fill-rule="evenodd" transform=""><path d="m12 23.5c6.3638576 0 11.5-5.1361424 11.5-11.5 0-6.36385763-5.1361424-11.5-11.5-11.5-6.36385763 0-11.5 5.13614237-11.5 11.5 0 6.3638576 5.13614237 11.5 11.5 11.5z" stroke="#fff"/><g fill="#fff"><path d="m10.8571429 13.8546886v-.2768943c0-.5986933.1032537-1.0851244.3097643-1.4593077.2065105-.3741834.5678986-.7658228 1.0841751-1.1749299.5836168-.4839438.9685737-.8705941 1.1548821-1.15996256.1863085-.28936846.2794613-.68350234.2794613-1.18241347 0-.45899824-.1672262-.83192872-.5016835-1.11880262-.3344574-.2868739-.7979769-.4303087-1.3905724-.4303087-.7811487 0-1.6139125.22450664-2.49831651.67352666l-.43771043-1.14499532c.93827629-.4839438 1.89449564-.72591207 2.86868684-.72591207.9607231 0 1.7227806.24321553 2.2861953.72965388s.8451179 1.13875487.8451179 1.95696913c0 .66355181-.1200886 1.20236775-.3602694 1.61646397-.2401808.4140963-.6812538.8905492-1.3232323 1.4293733-.5297445.4340526-.8686862.7857797-1.016835 1.0551917-.1481489.269412-.2222223.6286227-.2222223 1.0776427v.1347053z"/><path d="m11.5 15c.66667 0 1 .3321353 1 .9964158 0 .6690595-.33333 1.0035842-1 1.0035842s-1-.3345247-1-1.0035842c0-.6642805.33333-.9964158 1-.9964158z"/></g></g></svg>